<svg xmlns="http://www.w3.org/2000/svg" version="1.1" xmlns:xlink="http://www.w3.org/1999/xlink" xmlns:svgjs="http://svgjs.dev/svgjs" width="1000" height="625" viewBox="0 0 1000 625"><g transform="matrix(1,0,0,1,0,0)"><svg viewBox="0 0 576 360" data-background-color="#ffffff" preserveAspectRatio="xMidYMid meet" height="625" width="1000" xmlns="http://www.w3.org/2000/svg" xmlns:xlink="http://www.w3.org/1999/xlink"><g id="tight-bounds" transform="matrix(1,0,0,1,0,0)"><svg viewBox="0 0 576 360" height="360" width="576"><g><svg></svg></g><g><svg viewBox="0 0 576 360" height="360" width="576"><g><path xmlns="http://www.w3.org/2000/svg" d="M132.115 90l155.885-90 155.885 90v180l-155.885 90-155.885-90z" fill="#755bb4" fill-rule="nonzero" stroke="none" stroke-width="1" stroke-linecap="butt" stroke-linejoin="miter" stroke-miterlimit="10" stroke-dasharray="" stroke-dashoffset="0" font-family="none" font-weight="none" font-size="none" text-anchor="none" style="mix-blend-mode: normal" data-fill-palette-color="tertiary"></path></g><g transform="matrix(1,0,0,1,206.0897730562681,99)"><svg viewBox="0 0 163.82045388746383 162" height="162" width="163.82045388746383"><g><svg viewBox="0 0 230.4 227.8396812747217" height="162" width="163.82045388746383"><g transform="matrix(1,0,0,1,0,156.79922078368833)"><svg viewBox="0 0 230.4 71.04046049103337" height="71.04046049103337" width="230.4"><g id="textblocktransform"><svg viewBox="0 0 230.4 71.04046049103337" height="71.04046049103337" width="230.4" id="textblock"><g><rect width="44.0064" height="4.608369728704048" y="64.79860267978587" fill="#755bb4" data-fill-palette-color="tertiary"></rect><rect width="44.0064" height="4.608369728704048" y="64.79860267978587" x="186.3936" fill="#755bb4" data-fill-palette-color="tertiary"></rect></g><g><svg viewBox="0 0 230.4 51.10131949592291" height="51.10131949592291" width="230.4"><g transform="matrix(1,0,0,1,0,0)"><svg width="230.4" viewBox="4.130000114440918 -36.040000915527344 164.6599884033203 36.53000259399414" height="51.10131949592291" data-palette-color="#ffffff"><path d="M8.84-35.55L8.84-3.83 25.68-3.83 25.68 0 4.13 0 4.13-35.55 8.84-35.55ZM51.12-20.26L51.12-16.43 35.72-16.43 35.72-3.83 53.61-3.83 53.61 0 31.03 0 31.03-35.55 53.37-35.55 53.37-31.69 35.72-31.69 35.72-20.26 51.12-20.26ZM85.69-17.7L85.69-4.66Q83.88-2.08 80.65-0.79 77.41 0.49 73.12 0.49L73.12 0.49Q68.77 0.49 65.4-1.55 62.03-3.59 60.19-7.35 58.34-11.11 58.3-16.06L58.3-16.06 58.3-19.17Q58.3-27.2 62.04-31.62 65.79-36.04 72.58-36.04L72.58-36.04Q78.14-36.04 81.54-33.19 84.93-30.35 85.69-25.12L85.69-25.12 81-25.12Q79.68-32.18 72.6-32.18L72.6-32.18Q67.89-32.18 65.46-28.87 63.03-25.56 63.01-19.29L63.01-19.29 63.01-16.38Q63.01-10.4 65.74-6.87 68.48-3.34 73.14-3.34L73.14-3.34Q75.78-3.34 77.75-3.93 79.73-4.52 81.03-5.91L81.03-5.91 81.03-13.89 72.8-13.89 72.8-17.7 85.69-17.7ZM98.53-35.55L98.53 0 93.84 0 93.84-35.55 98.53-35.55ZM134.44-18.87L134.44-16.63Q134.44-11.4 132.68-7.51 130.92-3.61 127.7-1.56 124.48 0.49 120.18 0.49L120.18 0.49Q115.98 0.49 112.73-1.57 109.49-3.64 107.69-7.46 105.9-11.28 105.85-16.31L105.85-16.31 105.85-18.87Q105.85-24 107.63-27.93 109.41-31.86 112.67-33.95 115.93-36.04 120.13-36.04L120.13-36.04Q124.4-36.04 127.66-33.97 130.92-31.91 132.68-27.99 134.44-24.07 134.44-18.87L134.44-18.87ZM129.78-16.28L129.78-18.92Q129.78-25.24 127.24-28.63 124.7-32.01 120.13-32.01L120.13-32.01Q115.69-32.01 113.14-28.63 110.59-25.24 110.51-19.24L110.51-19.24 110.51-16.63Q110.51-10.5 113.09-6.99 115.66-3.49 120.18-3.49L120.18-3.49Q124.72-3.49 127.21-6.8 129.7-10.11 129.78-16.28L129.78-16.28ZM168.79-35.55L168.79 0 164.07 0 146.18-27.39 146.18 0 141.47 0 141.47-35.55 146.18-35.55 164.12-8.03 164.12-35.55 168.79-35.55Z" opacity="1" transform="matrix(1,0,0,1,0,0)" fill="#ffffff" class="wordmark-text-0" data-fill-palette-color="quaternary" id="text-0"></path></svg></g></svg></g><g transform="matrix(1,0,0,1,44.0064,63.16511459724241)"><svg viewBox="0 0 142.3872 7.8753458937909695" height="7.8753458937909695" width="142.3872"><g transform="matrix(1,0,0,1,8,0)"><svg width="126.3872" viewBox="3.299999952316284 -38.29999923706055 678 42.29999923706055" height="7.8753458937909695" data-palette-color="#ffffff"><path d="M4.45 0L4.45 0Q3.95 0 3.63-0.3 3.3-0.6 3.3-1L3.3-1 3.3-29.25Q3.3-31.7 4.53-33.75 5.75-35.8 7.78-37.05 9.8-38.3 12.2-38.3L12.2-38.3 13.05-38.3Q13.6-38.3 13.9-37.95 14.2-37.6 14.2-37.1L14.2-37.1Q14.2-36.65 13.9-36.33 13.6-36 13.05-36L13.05-36 12.4-36Q10.55-36 9.05-35.05 7.55-34.1 6.68-32.6 5.8-31.1 5.75-29.35L5.75-29.35 5.75-23.6 13.2-23.6Q13.65-23.6 13.93-23.3 14.2-23 14.2-22.55L14.2-22.55Q14.2-22.1 13.93-21.78 13.65-21.45 13.2-21.45L13.2-21.45 5.75-21.45 5.75-1Q5.75-0.6 5.38-0.3 5 0 4.45 0ZM19.2 0L19.2 0Q18.7 0 18.35-0.33 18-0.65 18-1.05L18-1.05 18-22.6Q18-23.05 18.35-23.33 18.7-23.6 19.2-23.6L19.2-23.6Q19.75-23.6 20.1-23.33 20.45-23.05 20.45-22.6L20.45-22.6 20.45-1.05Q20.45-0.65 20.1-0.33 19.75 0 19.2 0ZM19.2-31.05L19.2-31.05Q18.45-31.05 17.87-31.6 17.3-32.15 17.3-32.9L17.3-32.9Q17.3-33.65 17.87-34.15 18.45-34.65 19.2-34.65L19.2-34.65Q20-34.65 20.52-34.15 21.05-33.65 21.05-32.9L21.05-32.9Q21.05-32.15 20.52-31.6 20-31.05 19.2-31.05ZM35.75 0L34.5 0Q30.8 0 28.85-1.7 26.9-3.4 26.9-7.1L26.9-7.1 26.9-34Q26.9-34.5 27.3-34.77 27.7-35.05 28.1-35.05L28.1-35.05Q28.6-35.05 28.97-34.77 29.35-34.5 29.35-34L29.35-34 29.35-23.6 36-23.6Q36.4-23.6 36.67-23.3 36.95-23 36.95-22.5L36.95-22.5Q36.95-22.1 36.67-21.78 36.4-21.45 36-21.45L36-21.45 29.35-21.45 29.35-7.1Q29.35-4.5 30.52-3.4 31.7-2.3 34.5-2.3L34.5-2.3 35.75-2.3Q36.3-2.3 36.59-1.98 36.9-1.65 36.9-1.15L36.9-1.15Q36.9-0.7 36.59-0.35 36.3 0 35.75 0L35.75 0ZM42.34 0L42.34 0Q41.84 0 41.49-0.33 41.14-0.65 41.14-1.05L41.14-1.05 41.14-22.6Q41.14-23.05 41.49-23.33 41.84-23.6 42.34-23.6L42.34-23.6Q42.89-23.6 43.22-23.33 43.54-23.05 43.54-22.6L43.54-22.6 43.54-20.1Q44.39-21.55 46.07-22.73 47.74-23.9 50.24-23.9L50.24-23.9Q52.69-23.9 54.72-22.68 56.74-21.45 57.97-19.38 59.19-17.3 59.19-14.75L59.19-14.75 59.19-1.05Q59.19-0.55 58.82-0.28 58.44 0 57.94 0L57.94 0Q57.54 0 57.14-0.28 56.74-0.55 56.74-1.05L56.74-1.05 56.74-14.75Q56.74-16.5 55.82-18.05 54.89-19.6 53.39-20.6 51.89-21.6 50.04-21.6L50.04-21.6Q48.44-21.6 46.97-20.78 45.49-19.95 44.54-18.43 43.59-16.9 43.59-14.75L43.59-14.75 43.59-1.05Q43.59-0.65 43.24-0.33 42.89 0 42.34 0ZM75.04 0.3L75.04 0.3Q71.99 0.3 69.67-0.85 67.34-2 65.99-4.08 64.64-6.15 64.64-8.95L64.64-8.95 64.64-14.9Q64.64-17.35 65.92-19.4 67.19-21.45 69.27-22.68 71.34-23.9 73.84-23.9L73.84-23.9Q76.29-23.9 78.34-22.73 80.39-21.55 81.67-19.53 82.94-17.5 82.94-14.85L82.94-14.85Q82.94-13 82.32-12.18 81.69-11.35 80.74-11.18 79.79-11 78.69-11L78.69-11 67.09-11 67.09-8.9Q67.09-5.7 69.39-3.83 71.69-1.95 75.14-1.95L75.14-1.95Q77.19-1.95 78.29-2.45 79.39-2.95 79.99-3.45 80.59-3.95 81.09-3.95L81.09-3.95Q81.44-3.95 81.69-3.75 81.94-3.55 82.09-3.28 82.24-3 82.24-2.75L82.24-2.75Q82.24-2.25 81.37-1.5 80.49-0.75 78.89-0.23 77.29 0.3 75.04 0.3ZM67.09-15.1L67.09-13.05 77.74-13.05Q79.44-13.05 79.99-13.4 80.54-13.75 80.54-14.85L80.54-14.85Q80.54-16.55 79.72-18.13 78.89-19.7 77.37-20.7 75.84-21.7 73.84-21.7L73.84-21.7Q71.94-21.7 70.42-20.8 68.89-19.9 67.99-18.4 67.09-16.9 67.09-15.1L67.09-15.1ZM94.14 0.3L94.14 0.3Q91.84 0.3 90.16-0.28 88.49-0.85 87.54-1.63 86.59-2.4 86.59-3.1L86.59-3.1Q86.59-3.35 86.71-3.6 86.84-3.85 87.06-4.05 87.29-4.25 87.49-4.25L87.49-4.25Q87.99-4.25 88.64-3.68 89.29-3.1 90.54-2.5 91.79-1.9 94.09-1.9L94.09-1.9Q97.09-1.9 98.34-3.05 99.59-4.2 99.59-5.75L99.59-5.75Q99.59-7.55 98.71-8.58 97.84-9.6 96.39-10.15 94.94-10.7 93.36-11.13 91.79-11.55 90.34-12.2 88.89-12.85 87.99-14.05 87.09-15.25 87.09-17.3L87.09-17.3Q87.09-18.8 87.89-20.35 88.69-21.9 90.36-22.9 92.04-23.9 94.74-23.9L94.74-23.9Q96.34-23.9 97.79-23.58 99.24-23.25 100.19-22.73 101.14-22.2 101.14-21.65L101.14-21.65Q101.14-21.45 100.99-21.13 100.84-20.8 100.61-20.58 100.39-20.35 100.04-20.35L100.04-20.35Q99.69-20.35 99.04-20.7 98.39-21.05 97.34-21.38 96.29-21.7 94.79-21.7L94.79-21.7Q92.84-21.7 91.66-21 90.49-20.3 89.96-19.3 89.44-18.3 89.44-17.35L89.44-17.35Q89.44-15.85 90.34-15 91.24-14.15 92.66-13.68 94.09-13.2 95.69-12.75 97.29-12.3 98.71-11.55 100.14-10.8 101.04-9.47 101.94-8.15 101.94-5.85L101.94-5.85Q101.94-3.05 99.89-1.38 97.84 0.3 94.14 0.3ZM113.14 0.3L113.14 0.3Q110.84 0.3 109.16-0.28 107.49-0.85 106.54-1.63 105.59-2.4 105.59-3.1L105.59-3.1Q105.59-3.35 105.71-3.6 105.84-3.85 106.06-4.05 106.29-4.25 106.49-4.25L106.49-4.25Q106.99-4.25 107.64-3.68 108.29-3.1 109.54-2.5 110.79-1.9 113.09-1.9L113.09-1.9Q116.09-1.9 117.34-3.05 118.59-4.2 118.59-5.75L118.59-5.75Q118.59-7.55 117.71-8.58 116.84-9.6 115.39-10.15 113.94-10.7 112.36-11.13 110.79-11.55 109.34-12.2 107.89-12.85 106.99-14.05 106.09-15.25 106.09-17.3L106.09-17.3Q106.09-18.8 106.89-20.35 107.69-21.9 109.36-22.9 111.04-23.9 113.74-23.9L113.74-23.9Q115.34-23.9 116.79-23.58 118.24-23.25 119.19-22.73 120.14-22.2 120.14-21.65L120.14-21.65Q120.14-21.45 119.99-21.13 119.84-20.8 119.61-20.58 119.39-20.35 119.04-20.35L119.04-20.35Q118.69-20.35 118.04-20.7 117.39-21.05 116.34-21.38 115.29-21.7 113.79-21.7L113.79-21.7Q111.84-21.7 110.66-21 109.49-20.3 108.96-19.3 108.44-18.3 108.44-17.35L108.44-17.35Q108.44-15.85 109.34-15 110.24-14.15 111.66-13.68 113.09-13.2 114.69-12.75 116.29-12.3 117.71-11.55 119.14-10.8 120.04-9.47 120.94-8.15 120.94-5.85L120.94-5.85Q120.94-3.05 118.89-1.38 116.84 0.3 113.14 0.3ZM126.33 4L126.33 4Q125.98 4 125.66 3.8 125.33 3.6 125.33 3.2L125.33 3.2Q125.33 2.95 125.38 2.75L125.38 2.75 126.33 0.2Q125.68 0 125.28-0.55 124.88-1.1 124.88-1.75L124.88-1.75Q124.88-2.6 125.46-3.2 126.03-3.8 126.88-3.8L126.88-3.8Q127.63-3.8 128.28-3.25 128.93-2.7 128.93-1.7L128.93-1.7Q128.93-1.6 128.91-1.35 128.88-1.1 128.71-0.58 128.53-0.05 128.18 0.9 127.83 1.85 127.18 3.45L127.18 3.45Q127.08 3.7 126.83 3.85 126.58 4 126.33 4ZM145.53 0L145.53 0Q145.03 0 144.68-0.33 144.33-0.65 144.33-1.05L144.33-1.05 144.33-22.6Q144.33-23.05 144.68-23.33 145.03-23.6 145.53-23.6L145.53-23.6Q146.08-23.6 146.4-23.33 146.73-23.05 146.73-22.6L146.73-22.6 146.73-20.05Q147.33-21.05 148.28-21.93 149.23-22.8 150.55-23.35 151.88-23.9 153.58-23.9L153.58-23.9 155.38-23.9Q155.83-23.9 156.13-23.58 156.43-23.25 156.43-22.75L156.43-22.75Q156.43-22.25 156.13-21.93 155.83-21.6 155.38-21.6L155.38-21.6 153.58-21.6Q151.88-21.6 150.3-20.73 148.73-19.85 147.75-18.23 146.78-16.6 146.78-14.3L146.78-14.3 146.78-1.05Q146.78-0.65 146.43-0.33 146.08 0 145.53 0ZM168.58 0.3L168.58 0.3Q165.53 0.3 163.2-0.85 160.88-2 159.53-4.08 158.18-6.15 158.18-8.95L158.18-8.95 158.18-14.9Q158.18-17.35 159.45-19.4 160.73-21.45 162.8-22.68 164.88-23.9 167.38-23.9L167.38-23.9Q169.83-23.9 171.88-22.73 173.93-21.55 175.2-19.53 176.48-17.5 176.48-14.85L176.48-14.85Q176.48-13 175.85-12.18 175.23-11.35 174.28-11.18 173.33-11 172.23-11L172.23-11 160.63-11 160.63-8.9Q160.63-5.7 162.93-3.83 165.23-1.95 168.68-1.95L168.68-1.95Q170.73-1.95 171.83-2.45 172.93-2.95 173.53-3.45 174.13-3.95 174.63-3.95L174.63-3.95Q174.98-3.95 175.23-3.75 175.48-3.55 175.63-3.28 175.78-3 175.78-2.75L175.78-2.75Q175.78-2.25 174.9-1.5 174.03-0.75 172.43-0.23 170.83 0.3 168.58 0.3ZM160.63-15.1L160.63-13.05 171.28-13.05Q172.98-13.05 173.53-13.4 174.08-13.75 174.08-14.85L174.08-14.85Q174.08-16.55 173.25-18.13 172.43-19.7 170.9-20.7 169.38-21.7 167.38-21.7L167.38-21.7Q165.48-21.7 163.95-20.8 162.43-19.9 161.53-18.4 160.63-16.9 160.63-15.1L160.63-15.1ZM190.17 0.3L190.17 0.3Q186.97 0.3 184.9-0.9 182.82-2.1 181.8-4.2 180.77-6.3 180.77-8.95L180.77-8.95 180.77-14.65Q180.77-17.25 181.77-19.38 182.77-21.5 184.87-22.7 186.97-23.9 190.17-23.9L190.17-23.9Q192.22-23.9 193.75-23.38 195.27-22.85 196.12-22.15 196.97-21.45 196.97-20.85L196.97-20.85Q196.97-20.6 196.8-20.3 196.62-20 196.37-19.83 196.12-19.65 195.82-19.65L195.82-19.65Q195.37-19.65 194.8-20.15 194.22-20.65 193.2-21.13 192.17-21.6 190.27-21.6L190.27-21.6Q186.82-21.6 185.02-19.73 183.22-17.85 183.22-14.65L183.22-14.65 183.22-8.95Q183.22-5.75 185.02-3.88 186.82-2 190.32-2L190.32-2Q192.32-2 193.4-2.5 194.47-3 195.05-3.5 195.62-4 196.12-4L196.12-4Q196.47-4 196.7-3.8 196.92-3.6 197.1-3.35 197.27-3.1 197.27-2.8L197.27-2.8Q197.27-2.25 196.4-1.5 195.52-0.75 193.95-0.23 192.37 0.3 190.17 0.3ZM203.12 0L203.12 0Q202.62 0 202.27-0.33 201.92-0.65 201.92-1.05L201.92-1.05 201.92-22.6Q201.92-23.05 202.27-23.33 202.62-23.6 203.12-23.6L203.12-23.6Q203.67-23.6 204-23.33 204.32-23.05 204.32-22.6L204.32-22.6 204.32-20.05Q204.92-21.05 205.87-21.93 206.82-22.8 208.15-23.35 209.47-23.9 211.17-23.9L211.17-23.9 212.97-23.9Q213.42-23.9 213.72-23.58 214.02-23.25 214.02-22.75L214.02-22.75Q214.02-22.25 213.72-21.93 213.42-21.6 212.97-21.6L212.97-21.6 211.17-21.6Q209.47-21.6 207.9-20.73 206.32-19.85 205.35-18.23 204.37-16.6 204.37-14.3L204.37-14.3 204.37-1.05Q204.37-0.65 204.02-0.33 203.67 0 203.12 0ZM226.17 0.3L226.17 0.3Q223.12 0.3 220.79-0.85 218.47-2 217.12-4.08 215.77-6.15 215.77-8.95L215.77-8.95 215.77-14.9Q215.77-17.35 217.04-19.4 218.32-21.45 220.39-22.68 222.47-23.9 224.97-23.9L224.97-23.9Q227.42-23.9 229.47-22.73 231.52-21.55 232.79-19.53 234.07-17.5 234.07-14.85L234.07-14.85Q234.07-13 233.44-12.18 232.82-11.35 231.87-11.18 230.92-11 229.82-11L229.82-11 218.22-11 218.22-8.9Q218.22-5.7 220.52-3.83 222.82-1.95 226.27-1.95L226.27-1.95Q228.32-1.95 229.42-2.45 230.52-2.95 231.12-3.45 231.72-3.95 232.22-3.95L232.22-3.95Q232.57-3.95 232.82-3.75 233.07-3.55 233.22-3.28 233.37-3 233.37-2.75L233.37-2.75Q233.37-2.25 232.49-1.5 231.62-0.75 230.02-0.23 228.42 0.3 226.17 0.3ZM218.22-15.1L218.22-13.05 228.87-13.05Q230.57-13.05 231.12-13.4 231.67-13.75 231.67-14.85L231.67-14.85Q231.67-16.55 230.84-18.13 230.02-19.7 228.49-20.7 226.97-21.7 224.97-21.7L224.97-21.7Q223.07-21.7 221.54-20.8 220.02-19.9 219.12-18.4 218.22-16.9 218.22-15.1L218.22-15.1ZM244.47 0.3L244.47 0.3Q241.57 0.3 239.57-1.33 237.57-2.95 237.57-6.3L237.57-6.3Q237.57-8.95 239.04-10.4 240.52-11.85 243.14-12.43 245.77-13 249.22-13L249.22-13 251.92-13 251.92-14.3Q251.92-16.05 251.29-17.75 250.67-19.45 249.29-20.55 247.92-21.65 245.62-21.65L245.62-21.65Q244.02-21.65 242.99-21.33 241.97-21 241.34-20.63 240.72-20.25 240.37-20.25L240.37-20.25Q239.87-20.25 239.57-20.73 239.27-21.2 239.27-21.6L239.27-21.6Q239.27-22.2 240.24-22.73 241.22-23.25 242.72-23.58 244.22-23.9 245.72-23.9L245.72-23.9Q248.97-23.9 250.84-22.53 252.72-21.15 253.54-18.98 254.37-16.8 254.37-14.3L254.37-14.3 254.37-1.05Q254.37-0.65 254.04-0.33 253.72 0 253.17 0L253.17 0Q252.67 0 252.32-0.33 251.97-0.65 251.97-1.05L251.97-1.05 251.97-3.5Q250.72-2.05 248.84-0.88 246.97 0.3 244.47 0.3ZM244.82-1.9L244.82-1.9Q246.57-1.9 248.19-2.78 249.82-3.65 250.87-4.93 251.92-6.2 251.92-7.3L251.92-7.3 251.92-11 249.47-11Q247.02-11 244.87-10.73 242.72-10.45 241.37-9.47 240.02-8.5 240.02-6.4L240.02-6.4Q240.02-4.05 241.42-2.98 242.82-1.9 244.82-1.9ZM269.41 0L268.16 0Q264.46 0 262.51-1.7 260.56-3.4 260.56-7.1L260.56-7.1 260.56-34Q260.56-34.5 260.96-34.77 261.36-35.05 261.76-35.05L261.76-35.05Q262.26-35.05 262.64-34.77 263.01-34.5 263.01-34L263.01-34 263.01-23.6 269.66-23.6Q270.06-23.6 270.34-23.3 270.61-23 270.61-22.5L270.61-22.5Q270.61-22.1 270.34-21.78 270.06-21.45 269.66-21.45L269.66-21.45 263.01-21.45 263.01-7.1Q263.01-4.5 264.19-3.4 265.36-2.3 268.16-2.3L268.16-2.3 269.41-2.3Q269.96-2.3 270.26-1.98 270.56-1.65 270.56-1.15L270.56-1.15Q270.56-0.7 270.26-0.35 269.96 0 269.41 0L269.41 0ZM276.01 0L276.01 0Q275.51 0 275.16-0.33 274.81-0.65 274.81-1.05L274.81-1.05 274.81-22.6Q274.81-23.05 275.16-23.33 275.51-23.6 276.01-23.6L276.01-23.6Q276.56-23.6 276.91-23.33 277.26-23.05 277.26-22.6L277.26-22.6 277.26-1.05Q277.26-0.65 276.91-0.33 276.56 0 276.01 0ZM276.01-31.05L276.01-31.05Q275.26-31.05 274.69-31.6 274.11-32.15 274.11-32.9L274.11-32.9Q274.11-33.65 274.69-34.15 275.26-34.65 276.01-34.65L276.01-34.65Q276.81-34.65 277.34-34.15 277.86-33.65 277.86-32.9L277.86-32.9Q277.86-32.15 277.34-31.6 276.81-31.05 276.01-31.05ZM292.06 0.3L292.06 0.3Q289.66 0.3 287.56-1 285.46-2.3 284.18-4.4 282.91-6.5 282.91-8.95L282.91-8.95 282.91-14.75Q282.91-17.2 284.16-19.3 285.41-21.4 287.51-22.65 289.61-23.9 292.06-23.9L292.06-23.9Q294.56-23.9 296.63-22.68 298.71-21.45 299.98-19.38 301.26-17.3 301.26-14.75L301.26-14.75 301.26-8.95Q301.26-6.55 299.98-4.42 298.71-2.3 296.63-1 294.56 0.3 292.06 0.3ZM292.06-2L292.06-2Q293.96-2 295.46-3 296.96-4 297.88-5.6 298.81-7.2 298.81-8.95L298.81-8.95 298.81-14.75Q298.81-16.5 297.91-18.05 297.01-19.6 295.48-20.6 293.96-21.6 292.06-21.6L292.06-21.6Q290.16-21.6 288.66-20.6 287.16-19.6 286.26-18.05 285.36-16.5 285.36-14.75L285.36-14.75 285.36-8.95Q285.36-7.2 286.26-5.6 287.16-4 288.68-3 290.21-2 292.06-2ZM308.06 0L308.06 0Q307.56 0 307.21-0.33 306.86-0.65 306.86-1.05L306.86-1.05 306.86-22.6Q306.86-23.05 307.21-23.33 307.56-23.6 308.06-23.6L308.06-23.6Q308.61-23.6 308.93-23.33 309.26-23.05 309.26-22.6L309.26-22.6 309.26-20.1Q310.11-21.55 311.78-22.73 313.46-23.9 315.96-23.9L315.96-23.9Q318.41-23.9 320.43-22.68 322.46-21.45 323.68-19.38 324.91-17.3 324.91-14.75L324.91-14.75 324.91-1.05Q324.91-0.55 324.53-0.28 324.16 0 323.66 0L323.66 0Q323.26 0 322.86-0.28 322.46-0.55 322.46-1.05L322.46-1.05 322.46-14.75Q322.46-16.5 321.53-18.05 320.61-19.6 319.11-20.6 317.61-21.6 315.76-21.6L315.76-21.6Q314.16-21.6 312.68-20.78 311.21-19.95 310.26-18.43 309.31-16.9 309.31-14.75L309.31-14.75 309.31-1.05Q309.31-0.65 308.96-0.33 308.61 0 308.06 0ZM331.5 4L331.5 4Q331.15 4 330.83 3.8 330.5 3.6 330.5 3.2L330.5 3.2Q330.5 2.95 330.55 2.75L330.55 2.75 331.5 0.2Q330.85 0 330.45-0.55 330.05-1.1 330.05-1.75L330.05-1.75Q330.05-2.6 330.63-3.2 331.2-3.8 332.05-3.8L332.05-3.8Q332.8-3.8 333.45-3.25 334.1-2.7 334.1-1.7L334.1-1.7Q334.1-1.6 334.08-1.35 334.05-1.1 333.88-0.58 333.7-0.05 333.35 0.9 333 1.85 332.35 3.45L332.35 3.45Q332.25 3.7 332 3.85 331.75 4 331.5 4ZM354.8 0.3L354.8 0.3Q351.9 0.3 349.9-1.33 347.9-2.95 347.9-6.3L347.9-6.3Q347.9-8.95 349.37-10.4 350.85-11.85 353.47-12.43 356.1-13 359.55-13L359.55-13 362.25-13 362.25-14.3Q362.25-16.05 361.62-17.75 361-19.45 359.62-20.55 358.25-21.65 355.95-21.65L355.95-21.65Q354.35-21.65 353.32-21.33 352.3-21 351.67-20.63 351.05-20.25 350.7-20.25L350.7-20.25Q350.2-20.25 349.9-20.73 349.6-21.2 349.6-21.6L349.6-21.6Q349.6-22.2 350.57-22.73 351.55-23.25 353.05-23.58 354.55-23.9 356.05-23.9L356.05-23.9Q359.3-23.9 361.17-22.53 363.05-21.15 363.87-18.98 364.7-16.8 364.7-14.3L364.7-14.3 364.7-1.05Q364.7-0.65 364.37-0.33 364.05 0 363.5 0L363.5 0Q363 0 362.65-0.33 362.3-0.65 362.3-1.05L362.3-1.05 362.3-3.5Q361.05-2.05 359.17-0.88 357.3 0.3 354.8 0.3ZM355.15-1.9L355.15-1.9Q356.9-1.9 358.52-2.78 360.15-3.65 361.2-4.93 362.25-6.2 362.25-7.3L362.25-7.3 362.25-11 359.8-11Q357.35-11 355.2-10.73 353.05-10.45 351.7-9.47 350.35-8.5 350.35-6.4L350.35-6.4Q350.35-4.05 351.75-2.98 353.15-1.9 355.15-1.9ZM372.2 0L372.2 0Q371.7 0 371.35-0.33 371-0.65 371-1.05L371-1.05 371-22.6Q371-23.05 371.35-23.33 371.7-23.6 372.2-23.6L372.2-23.6Q372.75-23.6 373.07-23.33 373.4-23.05 373.4-22.6L373.4-22.6 373.4-20.1Q374.25-21.55 375.92-22.73 377.6-23.9 380.1-23.9L380.1-23.9Q382.55-23.9 384.57-22.68 386.6-21.45 387.82-19.38 389.05-17.3 389.05-14.75L389.05-14.75 389.05-1.05Q389.05-0.55 388.67-0.28 388.3 0 387.8 0L387.8 0Q387.4 0 387-0.28 386.6-0.55 386.6-1.05L386.6-1.05 386.6-14.75Q386.6-16.5 385.67-18.05 384.75-19.6 383.25-20.6 381.75-21.6 379.9-21.6L379.9-21.6Q378.3-21.6 376.82-20.78 375.35-19.95 374.4-18.43 373.45-16.9 373.45-14.75L373.45-14.75 373.45-1.05Q373.45-0.65 373.1-0.33 372.75 0 372.2 0ZM403.34 0.3L403.34 0.3Q400.99 0.3 398.94-1 396.89-2.3 395.67-4.42 394.44-6.55 394.44-8.95L394.44-8.95 394.44-14.75Q394.44-17.3 395.67-19.38 396.89-21.45 398.94-22.68 400.99-23.9 403.44-23.9L403.44-23.9Q405.94-23.9 407.62-22.73 409.29-21.55 410.09-20.1L410.09-20.1 410.09-37.25Q410.09-37.75 410.47-38.02 410.84-38.3 411.34-38.3L411.34-38.3Q411.89-38.3 412.22-38.02 412.54-37.75 412.54-37.25L412.54-37.25 412.54-1.05Q412.54-0.65 412.22-0.33 411.89 0 411.34 0L411.34 0Q410.89 0 410.52-0.33 410.14-0.65 410.14-1.05L410.14-1.05 410.14-3.5Q409.39-1.95 407.52-0.83 405.64 0.3 403.34 0.3ZM403.54-2L403.54-2Q405.44-2 406.92-2.98 408.39-3.95 409.24-5.2 410.09-6.45 410.09-7.25L410.09-7.25 410.09-14.75Q410.09-16.9 409.14-18.43 408.19-19.95 406.72-20.78 405.24-21.6 403.59-21.6L403.59-21.6Q401.79-21.6 400.27-20.6 398.74-19.6 397.82-18.05 396.89-16.5 396.89-14.75L396.89-14.75 396.89-8.95Q396.89-7.2 397.82-5.6 398.74-4 400.24-3 401.74-2 403.54-2ZM430.39 0L430.39 0Q429.89 0 429.54-0.33 429.19-0.65 429.19-1.05L429.19-1.05 429.19-37.25Q429.19-37.75 429.54-38.02 429.89-38.3 430.39-38.3L430.39-38.3Q430.94-38.3 431.29-38.02 431.64-37.75 431.64-37.25L431.64-37.25 431.64-20.1Q432.49-21.55 434.16-22.73 435.84-23.9 438.29-23.9L438.29-23.9Q440.74-23.9 442.76-22.68 444.79-21.45 446.01-19.38 447.24-17.3 447.24-14.75L447.24-14.75 447.24-1.05Q447.24-0.55 446.86-0.28 446.49 0 445.99 0L445.99 0Q445.59 0 445.19-0.28 444.79-0.55 444.79-1.05L444.79-1.05 444.79-14.75Q444.79-16.5 443.86-18.05 442.94-19.6 441.44-20.6 439.94-21.6 438.09-21.6L438.09-21.6Q436.49-21.6 435.01-20.78 433.54-19.95 432.59-18.43 431.64-16.9 431.64-14.75L431.64-14.75 431.64-1.05Q431.64-0.65 431.29-0.33 430.94 0 430.39 0ZM461.79 0.3L461.79 0.3Q459.39 0.3 457.29-1 455.19-2.3 453.91-4.4 452.64-6.5 452.64-8.95L452.64-8.95 452.64-14.75Q452.64-17.2 453.89-19.3 455.14-21.4 457.24-22.65 459.34-23.9 461.79-23.9L461.79-23.9Q464.29-23.9 466.36-22.68 468.44-21.45 469.71-19.38 470.99-17.3 470.99-14.75L470.99-14.75 470.99-8.95Q470.99-6.55 469.71-4.42 468.44-2.3 466.36-1 464.29 0.3 461.79 0.3ZM461.79-2L461.79-2Q463.69-2 465.19-3 466.69-4 467.61-5.6 468.54-7.2 468.54-8.95L468.54-8.95 468.54-14.75Q468.54-16.5 467.64-18.05 466.74-19.6 465.21-20.6 463.69-21.6 461.79-21.6L461.79-21.6Q459.89-21.6 458.39-20.6 456.89-19.6 455.99-18.05 455.09-16.5 455.09-14.75L455.09-14.75 455.09-8.95Q455.09-7.2 455.99-5.6 456.89-4 458.41-3 459.94-2 461.79-2ZM478.23 0L478.23 0Q477.73 0 477.38-0.33 477.03-0.65 477.03-1.05L477.03-1.05 477.03-37.25Q477.03-37.75 477.38-38.02 477.73-38.3 478.23-38.3L478.23-38.3Q478.78-38.3 479.13-38.02 479.48-37.75 479.48-37.25L479.48-37.25 479.48-1.05Q479.48-0.65 479.13-0.33 478.78 0 478.23 0ZM487.68 0L487.68 0Q487.18 0 486.83-0.33 486.48-0.65 486.48-1.05L486.48-1.05 486.48-22.6Q486.48-23.05 486.83-23.33 487.18-23.6 487.68-23.6L487.68-23.6Q488.23-23.6 488.58-23.33 488.93-23.05 488.93-22.6L488.93-22.6 488.93-1.05Q488.93-0.65 488.58-0.33 488.23 0 487.68 0ZM487.68-31.05L487.68-31.05Q486.93-31.05 486.36-31.6 485.78-32.15 485.78-32.9L485.78-32.9Q485.78-33.65 486.36-34.15 486.93-34.65 487.68-34.65L487.68-34.65Q488.48-34.65 489.01-34.15 489.53-33.65 489.53-32.9L489.53-32.9Q489.53-32.15 489.01-31.6 488.48-31.05 487.68-31.05ZM501.58 0.3L501.58 0.3Q499.28 0.3 497.6-0.28 495.93-0.85 494.98-1.63 494.03-2.4 494.03-3.1L494.03-3.1Q494.03-3.35 494.15-3.6 494.28-3.85 494.5-4.05 494.73-4.25 494.93-4.25L494.93-4.25Q495.43-4.25 496.08-3.68 496.73-3.1 497.98-2.5 499.23-1.9 501.53-1.9L501.53-1.9Q504.53-1.9 505.78-3.05 507.03-4.2 507.03-5.75L507.03-5.75Q507.03-7.55 506.15-8.58 505.28-9.6 503.83-10.15 502.38-10.7 500.8-11.13 499.23-11.55 497.78-12.2 496.33-12.85 495.43-14.05 494.53-15.25 494.53-17.3L494.53-17.3Q494.53-18.8 495.33-20.35 496.13-21.9 497.8-22.9 499.48-23.9 502.18-23.9L502.18-23.9Q503.78-23.9 505.23-23.58 506.68-23.25 507.63-22.73 508.58-22.2 508.58-21.65L508.58-21.65Q508.58-21.45 508.43-21.13 508.28-20.8 508.05-20.58 507.83-20.35 507.48-20.35L507.48-20.35Q507.13-20.35 506.48-20.7 505.83-21.05 504.78-21.38 503.73-21.7 502.23-21.7L502.23-21.7Q500.28-21.7 499.1-21 497.93-20.3 497.4-19.3 496.88-18.3 496.88-17.35L496.88-17.35Q496.88-15.85 497.78-15 498.68-14.15 500.1-13.68 501.53-13.2 503.13-12.75 504.73-12.3 506.15-11.55 507.58-10.8 508.48-9.47 509.38-8.15 509.38-5.85L509.38-5.85Q509.38-3.05 507.33-1.38 505.28 0.3 501.58 0.3ZM523.23 0L521.98 0Q518.28 0 516.33-1.7 514.38-3.4 514.38-7.1L514.38-7.1 514.38-34Q514.38-34.5 514.78-34.77 515.18-35.05 515.58-35.05L515.58-35.05Q516.08-35.05 516.45-34.77 516.83-34.5 516.83-34L516.83-34 516.83-23.6 523.48-23.6Q523.88-23.6 524.15-23.3 524.43-23 524.43-22.5L524.43-22.5Q524.43-22.1 524.15-21.78 523.88-21.45 523.48-21.45L523.48-21.45 516.83-21.45 516.83-7.1Q516.83-4.5 518-3.4 519.18-2.3 521.98-2.3L521.98-2.3 523.23-2.3Q523.78-2.3 524.08-1.98 524.38-1.65 524.38-1.15L524.38-1.15Q524.38-0.7 524.08-0.35 523.78 0 523.23 0L523.23 0ZM529.82 0L529.82 0Q529.32 0 528.97-0.33 528.62-0.65 528.62-1.05L528.62-1.05 528.62-22.6Q528.62-23.05 528.97-23.33 529.32-23.6 529.82-23.6L529.82-23.6Q530.37-23.6 530.72-23.33 531.07-23.05 531.07-22.6L531.07-22.6 531.07-1.05Q531.07-0.65 530.72-0.33 530.37 0 529.82 0ZM529.82-31.05L529.82-31.05Q529.07-31.05 528.5-31.6 527.92-32.15 527.92-32.9L527.92-32.9Q527.92-33.65 528.5-34.15 529.07-34.65 529.82-34.65L529.82-34.65Q530.62-34.65 531.15-34.15 531.67-33.65 531.67-32.9L531.67-32.9Q531.67-32.15 531.15-31.6 530.62-31.05 529.82-31.05ZM546.22 0.3L546.22 0.3Q543.02 0.3 540.95-0.9 538.87-2.1 537.85-4.2 536.82-6.3 536.82-8.95L536.82-8.95 536.82-14.65Q536.82-17.25 537.82-19.38 538.82-21.5 540.92-22.7 543.02-23.9 546.22-23.9L546.22-23.9Q548.27-23.9 549.79-23.38 551.32-22.85 552.17-22.15 553.02-21.45 553.02-20.85L553.02-20.85Q553.02-20.6 552.85-20.3 552.67-20 552.42-19.83 552.17-19.65 551.87-19.65L551.87-19.65Q551.42-19.65 550.85-20.15 550.27-20.65 549.25-21.13 548.22-21.6 546.32-21.6L546.32-21.6Q542.87-21.6 541.07-19.73 539.27-17.85 539.27-14.65L539.27-14.65 539.27-8.95Q539.27-5.75 541.07-3.88 542.87-2 546.37-2L546.37-2Q548.37-2 549.45-2.5 550.52-3 551.1-3.5 551.67-4 552.17-4L552.17-4Q552.52-4 552.75-3.8 552.97-3.6 553.14-3.35 553.32-3.1 553.32-2.8L553.32-2.8Q553.32-2.25 552.45-1.5 551.57-0.75 550-0.23 548.42 0.3 546.22 0.3ZM574.66 0.35L574.66 0.35Q574.21 0.35 573.99 0.15 573.76-0.05 573.56-0.55L573.56-0.55 565.76-21.8Q565.71-21.95 565.64-22.18 565.56-22.4 565.56-22.5L565.56-22.5Q565.56-22.85 565.76-23.1 565.96-23.35 566.29-23.5 566.61-23.65 566.96-23.65L566.96-23.65Q567.26-23.65 567.56-23.5 567.86-23.35 567.96-23.05L567.96-23.05 574.71-4.3 580.16-21.5Q580.26-21.9 580.56-22.08 580.86-22.25 581.26-22.25L581.26-22.25Q581.66-22.25 581.94-22.08 582.21-21.9 582.36-21.5L582.36-21.5 587.61-4.05 594.51-23.05Q594.66-23.65 595.46-23.65L595.46-23.65Q595.76-23.65 596.09-23.53 596.41-23.4 596.61-23.15 596.81-22.9 596.81-22.55L596.81-22.55Q596.81-22.4 596.76-22.15 596.71-21.9 596.61-21.8L596.61-21.8 588.81-0.35Q588.66 0.05 588.39 0.2 588.11 0.35 587.81 0.35L587.81 0.35Q587.41 0.35 587.19 0.2 586.96 0.05 586.81-0.3L586.81-0.3 581.26-17.9 575.76-0.55Q575.61-0.1 575.34 0.13 575.06 0.35 574.66 0.35ZM610.51 0.3L610.51 0.3Q607.46 0.3 605.14-0.85 602.81-2 601.46-4.08 600.11-6.15 600.11-8.95L600.11-8.95 600.11-14.9Q600.11-17.35 601.39-19.4 602.66-21.45 604.74-22.68 606.81-23.9 609.31-23.9L609.31-23.9Q611.76-23.9 613.81-22.73 615.86-21.55 617.14-19.53 618.41-17.5 618.41-14.85L618.41-14.85Q618.41-13 617.79-12.18 617.16-11.35 616.21-11.18 615.26-11 614.16-11L614.16-11 602.56-11 602.56-8.9Q602.56-5.7 604.86-3.83 607.16-1.95 610.61-1.95L610.61-1.95Q612.66-1.95 613.76-2.45 614.86-2.95 615.46-3.45 616.06-3.95 616.56-3.95L616.56-3.95Q616.91-3.95 617.16-3.75 617.41-3.55 617.56-3.28 617.71-3 617.71-2.75L617.71-2.75Q617.71-2.25 616.84-1.5 615.96-0.75 614.36-0.23 612.76 0.3 610.51 0.3ZM602.56-15.1L602.56-13.05 613.21-13.05Q614.91-13.05 615.46-13.4 616.01-13.75 616.01-14.85L616.01-14.85Q616.01-16.55 615.19-18.13 614.36-19.7 612.84-20.7 611.31-21.7 609.31-21.7L609.31-21.7Q607.41-21.7 605.89-20.8 604.36-19.9 603.46-18.4 602.56-16.9 602.56-15.1L602.56-15.1ZM625.16 0L625.16 0Q624.66 0 624.31-0.33 623.96-0.65 623.96-1.05L623.96-1.05 623.96-37.25Q623.96-37.75 624.31-38.02 624.66-38.3 625.16-38.3L625.16-38.3Q625.71-38.3 626.06-38.02 626.41-37.75 626.41-37.25L626.41-37.25 626.41-1.05Q626.41-0.65 626.06-0.33 625.71 0 625.16 0ZM635.06 0L635.06 0Q634.56 0 634.21-0.33 633.86-0.65 633.86-1.05L633.86-1.05 633.86-37.25Q633.86-37.75 634.21-38.02 634.56-38.3 635.06-38.3L635.06-38.3Q635.61-38.3 635.96-38.02 636.31-37.75 636.31-37.25L636.31-37.25 636.31-1.05Q636.31-0.65 635.96-0.33 635.61 0 635.06 0ZM656.45-10.9L643.45-10.9Q643.05-10.9 642.75-11.23 642.45-11.55 642.45-12L642.45-12Q642.45-12.5 642.75-12.83 643.05-13.15 643.45-13.15L643.45-13.15 656.45-13.15Q656.9-13.15 657.23-12.83 657.55-12.5 657.55-12L657.55-12Q657.55-11.55 657.23-11.23 656.9-10.9 656.45-10.9L656.45-10.9ZM672.45 0.3L672.45 0.3Q670.1 0.3 668.28-0.83 666.45-1.95 665.6-3.5L665.6-3.5 665.6-1.05Q665.6-0.65 665.28-0.33 664.95 0 664.4 0L664.4 0Q663.9 0 663.55-0.33 663.2-0.65 663.2-1.05L663.2-1.05 663.2-37.25Q663.2-37.75 663.55-38.02 663.9-38.3 664.4-38.3L664.4-38.3Q664.95-38.3 665.3-38.02 665.65-37.75 665.65-37.25L665.65-37.25 665.65-20.1Q666.5-21.55 668.18-22.73 669.85-23.9 672.3-23.9L672.3-23.9Q674.75-23.9 676.8-22.68 678.85-21.45 680.08-19.38 681.3-17.3 681.3-14.75L681.3-14.75 681.3-8.95Q681.3-6.55 680.08-4.42 678.85-2.3 676.83-1 674.8 0.3 672.45 0.3ZM672.2-2L672.2-2Q674-2 675.5-3 677-4 677.93-5.6 678.85-7.2 678.85-8.95L678.85-8.95 678.85-14.75Q678.85-16.5 677.93-18.05 677-19.6 675.5-20.6 674-21.6 672.15-21.6L672.15-21.6Q670.55-21.6 669.05-20.78 667.55-19.95 666.6-18.43 665.65-16.9 665.65-14.75L665.65-14.75 665.65-7.25Q665.65-6.45 666.53-5.2 667.4-3.95 668.88-2.98 670.35-2 672.2-2Z" opacity="1" transform="matrix(1,0,0,1,0,0)" fill="#ffffff" class="slogan-text-1" data-fill-palette-color="quaternary" id="text-1"></path></svg></g></svg></g></svg></g></svg></g><g transform="matrix(1,0,0,1,48.86418470947534,0)"><svg viewBox="0 0 132.67163058104933 132.67163058104933" height="132.67163058104933" width="132.67163058104933"><g><svg></svg></g><g id="icon-0"><svg viewBox="0 0 132.67163058104933 132.67163058104933" height="132.67163058104933" width="132.67163058104933"><g><path d="M0 66.336c0-36.636 29.7-66.336 66.336-66.336 36.636 0 66.336 29.7 66.336 66.336 0 36.636-29.7 66.336-66.336 66.336-36.636 0-66.336-29.7-66.336-66.336zM66.336 128.063c34.091 0 61.727-27.636 61.727-61.727 0-34.091-27.636-61.727-61.727-61.728-34.091 0-61.727 27.636-61.728 61.728 0 34.091 27.636 61.727 61.728 61.727z" data-fill-palette-color="tertiary" fill="#755bb4" stroke="transparent"></path></g><g transform="matrix(1,0,0,1,36.73230533380173,27.72206768214612)"><svg viewBox="0 0 59.20701991344587 77.22749521675709" height="77.22749521675709" width="59.20701991344587"><g><svg xmlns="http://www.w3.org/2000/svg" xmlns:xlink="http://www.w3.org/1999/xlink" version="1.1" x="0" y="0" viewBox="22.306962966918945 13.879000663757324 55.384857177734375 72.24200439453125" enable-background="new 0 0 100 100" xml:space="preserve" height="77.22749521675709" width="59.20701991344587" class="icon-s-0" data-fill-palette-color="quaternary" id="s-0"><g fill="#ffffff" data-fill-palette-color="quaternary"><path fill="#ffffff" d="M50.849 79.545c0 3.633 2.947 6.576 6.579 6.576 3.633 0 6.577-2.943 6.577-6.576 0-3.635-2.944-6.578-6.577-6.578C53.796 72.967 50.849 75.91 50.849 79.545z" data-fill-palette-color="quaternary"></path><path fill="#ffffff" d="M58.784 32.333l6.368 5.329c1.374 1.019 7.989 0.06 10.034-0.105 1.892-0.154 2.555-1.537 2.503-2.524-0.046-0.917-0.915-2.426-3.001-2.146-2.086 0.281-7.124 0.308-7.124 0.308l-7.159-6.146c0 0-2.621-0.775-8.865-0.576-6.245 0.2-8.743 1.913-8.743 1.913l0.514 26.227 0.722 1.688-2.387 10.158L26.805 78.588c0 0-2.312 2.301 0.464 6.074l20.925-14.986 5.831-10.934c0 0 4.592-11.318 5.826-23.102C59.851 35.64 58.462 34.35 58.784 32.333z" data-fill-palette-color="quaternary"></path><path fill="#ffffff" d="M51.54 24.124c-1.347 0.043-2.514 0.137-3.53 0.268-0.74-1.631-1.154-3.649-1.154-5.546 0-4.121 3.803-4.967 4.965-4.967 0.869 0 4.968 0.445 4.968 4.967 0 1.906-0.348 3.771-0.974 5.295C54.636 24.087 53.223 24.07 51.54 24.124z" data-fill-palette-color="quaternary"></path><path fill="#ffffff" d="M40.59 29.216l0.302 6.771-8.126 1.603c0 0-7.146 5.001-7.436 5.168-0.288 0.169-1.973 0.104-2.715-1.327-0.74-1.432-0.074-2.588 1.223-3.472s7.981-5.468 7.981-5.468L40.59 29.216z" data-fill-palette-color="quaternary"></path><path fill="#ffffff" d="M43.026 75.881l-1.348 5.057c0 0 0.183 2.918 4.138 2.902l2.954-11.541L43.026 75.881z" data-fill-palette-color="quaternary"></path></g></svg></g></svg></g></svg></g></svg></g><g></g></svg></g></svg></g></svg></g><defs></defs></svg><rect width="576" height="360" fill="none" stroke="none" visibility="hidden"></rect></g></svg></g></svg>